<svg width="1" height="1" viewBox="0 0 1 1" fill="none" xmlns="http://www.w3.org/2000/svg">
<path d="M0.49779 0.464554C0.396758 0.464554 0.304965 0.4767 0.237007 0.496495V0.665579C0.304965 0.685374 0.396758 0.69752 0.49779 0.69752C0.613423 0.69752 0.716945 0.68161 0.786482 0.656531V0.505545C0.716945 0.480465 0.613423 0.464554 0.49779 0.464554Z" fill="#535353"/>
<path d="M0.890629 0.601936L0.878787 0.577402C0.878848 0.57647 0.878896 0.575537 0.878896 0.574602C0.878896 0.546789 0.849974 0.521156 0.801315 0.500633V0.648572C0.824019 0.638995 0.842439 0.628307 0.855612 0.616801C0.851735 0.63239 0.838475 0.663928 0.827904 0.686107C0.810529 0.717829 0.804237 0.745443 0.805044 0.746811C0.805558 0.747672 0.811485 0.738527 0.820226 0.72371C0.840568 0.694726 0.879113 0.639392 0.886817 0.625297C0.895544 0.609318 0.890629 0.601936 0.890629 0.601936Z" fill="#535353"/>
<path d="M0.124225 0.576227C0.124225 0.581583 0.125303 0.58686 0.127382 0.592034L0.12029 0.604659C0.12029 0.604659 0.114608 0.612031 0.124613 0.627582C0.133438 0.641295 0.177642 0.694972 0.200973 0.723081C0.210995 0.737492 0.217789 0.746368 0.218384 0.745511C0.21932 0.74415 0.212154 0.717094 0.192251 0.686227C0.182965 0.669647 0.171873 0.647683 0.165216 0.631459C0.183802 0.643222 0.208119 0.653892 0.23701 0.663076V0.48938C0.16739 0.511503 0.124225 0.542241 0.124225 0.576227Z" fill="#535353"/>
<path d="M0.485057 0.2072L0.461911 0.24586C0.45815 0.246189 0.454388 0.246518 0.450627 0.246847L0.420547 0.213475C0.417711 0.209934 0.413159 0.208437 0.408826 0.209448C0.404493 0.210459 0.401006 0.213922 0.399454 0.217847L0.384269 0.260864C0.380562 0.26182 0.376856 0.262776 0.373832 0.264304L0.337977 0.237122C0.334623 0.234889 0.329499 0.234074 0.325848 0.235657C0.321624 0.237921 0.318764 0.241329 0.317894 0.245827L0.310505 0.29132C0.30748 0.292848 0.304511 0.295002 0.300859 0.296585L0.26133 0.277936C0.257349 0.275758 0.252335 0.276197 0.248793 0.279033C0.245196 0.281243 0.243073 0.28585 0.24283 0.290293L0.244326 0.336271C0.241983 0.338371 0.239068 0.341153 0.236099 0.343307L0.193521 0.333136C0.188968 0.33164 0.18469 0.333277 0.181203 0.336741C0.178289 0.339522 0.176847 0.344701 0.177857 0.349034L0.188074 0.393618C0.185786 0.396345 0.183498 0.399072 0.181265 0.402425L0.136893 0.400623C0.13245 0.40038 0.128227 0.402644 0.126049 0.406625C0.12387 0.410605 0.123055 0.415729 0.12532 0.419953L0.143466 0.461317C0.141233 0.46467 0.139627 0.467969 0.138021 0.471268L0.0950977 0.478813C0.090083 0.479251 0.0865961 0.482715 0.0850446 0.48664C0.083548 0.491193 0.0839867 0.496207 0.0861963 0.499804L0.112163 0.536694C0.111591 0.537375 0.111646 0.538002 0.1117 0.538629L0.0388609 0.615745C0.0388609 0.615745 0.0282358 0.624254 0.0439458 0.644987C0.0581278 0.662695 0.131318 0.733983 0.169986 0.771657C0.186158 0.790454 0.197284 0.802114 0.198483 0.801377C0.200199 0.799332 0.19086 0.764777 0.158923 0.72462C0.134265 0.688248 0.102211 0.63231 0.109239 0.62601C0.109239 0.62601 0.117764 0.615158 0.135394 0.607299C0.134712 0.606727 0.134712 0.606727 0.135394 0.607299C0.135394 0.607299 0.498058 0.774536 0.834217 0.609955C0.872752 0.602794 0.896039 0.623496 0.896039 0.623496C0.904055 0.628479 0.88318 0.68589 0.866302 0.724001C0.842913 0.767104 0.839551 0.800875 0.841541 0.801964C0.84285 0.802481 0.85121 0.789749 0.863301 0.76911C0.893178 0.727966 0.948819 0.649197 0.959138 0.629976C0.971119 0.608084 0.959178 0.601549 0.959178 0.601549L0.881552 0.544545C0.880706 0.542093 0.87986 0.53964 0.879586 0.536506L0.904777 0.499562C0.907637 0.496154 0.907825 0.491084 0.906188 0.486806C0.90455 0.482528 0.901142 0.479668 0.896644 0.478798L0.853032 0.471244C0.851504 0.46822 0.849921 0.464568 0.848393 0.461544L0.866196 0.419561C0.868374 0.415581 0.867936 0.410566 0.865044 0.406398C0.862835 0.402801 0.858854 0.400623 0.854466 0.401007L0.810368 0.402338C0.808214 0.399369 0.805432 0.396454 0.803277 0.393484L0.813284 0.349026C0.814154 0.344528 0.813088 0.339568 0.810306 0.336654C0.806843 0.333167 0.802291 0.33167 0.797958 0.332681L0.755309 0.34336C0.752582 0.341072 0.749856 0.338784 0.747074 0.335869L0.74814 0.290298C0.748383 0.285855 0.746119 0.281632 0.74271 0.278772C0.738675 0.275967 0.734232 0.275724 0.730009 0.277988L0.690581 0.296597C0.687282 0.294991 0.683928 0.292758 0.68063 0.291152L0.673547 0.246293C0.673108 0.241279 0.669645 0.237792 0.665719 0.23624C0.661739 0.234062 0.656724 0.234501 0.653183 0.237337L0.617601 0.263821C0.614358 0.262841 0.611114 0.261862 0.607243 0.260937L0.592121 0.218045C0.590483 0.213767 0.58702 0.21028 0.582523 0.209411C0.578025 0.208541 0.573747 0.210178 0.57026 0.213642L0.540352 0.247209C0.537163 0.246856 0.533292 0.245931 0.529476 0.245633L0.506534 0.207216C0.50427 0.202993 0.500289 0.200814 0.495847 0.200571C0.491404 0.200328 0.487235 0.20322 0.485057 0.2072Z" fill="url(#paint0_linear_0_1)"/>
<path d="M0.375277 0.70913C0.37389 0.707947 0.373163 0.707245 0.373163 0.707245L0.491948 0.697514C0.395054 0.569689 0.317428 0.671516 0.309166 0.682901V0.70913H0.375277Z" fill="black"/>
<path d="M0.622607 0.707758C0.623993 0.706575 0.62472 0.705872 0.62472 0.705872L0.510567 0.697519C0.607507 0.564447 0.680458 0.670143 0.688719 0.681528V0.707758H0.622607Z" fill="black"/>
<path d="M0.805046 0.580851C0.805046 0.580851 0.792131 0.632512 0.7113 0.686845L0.688809 0.692189C0.688809 0.692189 0.615549 0.558584 0.511782 0.709112C0.511782 0.709112 0.54407 0.690408 0.630691 0.713343C0.630691 0.713343 0.590832 0.774356 0.510669 0.772352C0.510669 0.772352 0.587492 0.864763 0.704619 0.73138C0.704619 0.73138 0.828427 0.683505 0.838448 0.580851L0.805046 0.580851Z" fill="url(#paint1_linear_0_1)"/>
<path d="M0.564495 0.514622C0.564495 0.514622 0.600734 0.474942 0.636974 0.514622C0.636974 0.514622 0.665449 0.567532 0.636974 0.593983C0.636974 0.593983 0.59038 0.63102 0.564495 0.593983C0.564495 0.593983 0.533433 0.564882 0.564495 0.514622Z" fill="black"/>
<path d="M0.606451 0.529344C0.606451 0.544795 0.597343 0.557321 0.586111 0.557321C0.574881 0.557321 0.565773 0.544795 0.565773 0.529344C0.565773 0.513893 0.574881 0.501366 0.586111 0.501366C0.597343 0.501366 0.606451 0.513893 0.606451 0.529344Z" fill="white"/>
<path d="M0.402751 0.50379C0.402751 0.50379 0.464914 0.476266 0.481881 0.537699C0.481881 0.537699 0.499653 0.609304 0.430831 0.613345C0.430831 0.613345 0.343073 0.596443 0.402751 0.50379Z" fill="black"/>
<path d="M0.433975 0.530359C0.433975 0.546291 0.424583 0.559215 0.412997 0.559215C0.401415 0.559215 0.392021 0.546291 0.392021 0.530359C0.392021 0.514422 0.401415 0.501503 0.412997 0.501503C0.424583 0.501503 0.433975 0.514422 0.433975 0.530359Z" fill="white"/>
<path d="M0.309444 0.739725C0.422979 0.885328 0.476758 0.768407 0.476758 0.768407C0.413019 0.761236 0.367805 0.71881 0.367805 0.71881C0.444291 0.70905 0.48851 0.708253 0.48851 0.708253C0.386129 0.573207 0.30307 0.695506 0.30307 0.695506C0.282355 0.687937 0.261042 0.659055 0.245306 0.632364L0.181767 0.613641C0.254867 0.737932 0.309444 0.739725 0.309444 0.739725Z" fill="url(#paint2_linear_0_1)"/>
<defs>
<linearGradient id="paint0_linear_0_1" x1="0.5185" y1="0.830227" x2="0.463659" y2="0.203387" gradientUnits="userSpaceOnUse">
<stop stop-color="#7C7C7C"/>
<stop offset="0.33" stop-color="#7C7C7C"/>
<stop offset="1" stop-color="#7A7A7A"/>
</linearGradient>
<linearGradient id="paint1_linear_0_1" x1="0.674558" y1="0.803527" x2="0.674558" y2="0.580851" gradientUnits="userSpaceOnUse">
<stop stop-color="#666666"/>
<stop offset="0.15" stop-color="#666666"/>
<stop offset="0.74" stop-color="#7C7C7C"/>
<stop offset="1" stop-color="#7C7C7C"/>
</linearGradient>
<linearGradient id="paint2_linear_0_1" x1="0.335139" y1="0.812825" x2="0.335139" y2="0.613641" gradientUnits="userSpaceOnUse">
<stop stop-color="#666666"/>
<stop offset="0.15" stop-color="#666666"/>
<stop offset="0.74" stop-color="#7C7C7C"/>
<stop offset="1" stop-color="#7C7C7C"/>
</linearGradient>
</defs>
</svg>
